<?xml version="1.0" encoding="UTF-8"?>
<svg id="Layer_2" data-name="Layer 2" xmlns="http://www.w3.org/2000/svg" xmlns:xlink="http://www.w3.org/1999/xlink" viewBox="0 0 383.02 223.48">
  <defs>
    <style>
      .cls-1 {
        clip-path: url(#clippath);
      }

      .cls-2 {
        fill: none;
      }

      .cls-2, .cls-3 {
        stroke-width: 0px;
      }

      .cls-3 {
        fill: #f37448;
      }
    </style>
    <clipPath id="clippath">
      <path class="cls-2" d="m176.82,11.2s4.05-4.48-1.71-8.32c0,0-4.05-5.33-11.31-1.49l-15.58,10.03,14.08,11.09,14.51-11.31Zm30.3,19.2s3.2-4.91-1.28-8.54c0,0-4.05-5.55-11.09-2.13l-18.56,12.38,14.51,11.31,16.43-13.01Zm26.46,29.02v-25.07l-45.87,31.47L116.23,14.09v24l71.47,52.81,45.87-31.47Z"/>
    </clipPath>
  </defs>
  <g id="Layer_1-2" data-name="Layer 1">
    <g>
      <g class="cls-1">
        <g>
          <polygon class="cls-3" points="248.95 106.08 248.86 105.95 249.36 105.6 249.46 105.74 248.95 106.08"/>
          <path class="cls-3" d="m242.2,104.68s2.1-1.43,4.2-2.87c.53-.36,1.04-.73,1.54-1.05.49-.34.95-.65,1.35-.92.39-.27.72-.5.95-.65.23-.16.36-.24.36-.24l.12.17s-.13.1-.36.25c-.23.16-.56.38-.95.65-.39.27-.85.59-1.34.92-.49.34-1.02.69-1.54,1.05-2.1,1.43-4.2,2.87-4.2,2.87l-.12-.17Z"/>
          <polygon class="cls-3" points="235.55 103.4 251.83 92.27 251.99 92.5 235.7 103.62 235.55 103.4"/>
          <path class="cls-3" d="m228.88,102.12s.1-.06.27-.18c.18-.12.44-.3.77-.53.66-.45,1.6-1.1,2.73-1.88,2.27-1.55,5.29-3.62,8.31-5.69,6.05-4.13,12.1-8.25,12.1-8.25l.2.29s-6.04,4.13-12.09,8.27c-3.03,2.06-6.05,4.12-8.32,5.67-1.14.77-2.08,1.41-2.74,1.86-.33.22-.59.4-.77.52-.18.12-.27.19-.27.19l-.19-.28Z"/>
          <path class="cls-3" d="m222.23,100.85s8.01-5.5,16.01-10.99c4.01-2.74,8.02-5.47,11.03-7.53,3.01-2.04,5.02-3.41,5.02-3.41l.24.35s-2,1.38-5,3.44c-3.01,2.06-7.01,4.8-11.02,7.54-8.03,5.46-16.06,10.92-16.06,10.92l-.22-.32Z"/>
          <path class="cls-3" d="m215.57,99.58s.63-.42,1.71-1.18c1.09-.75,2.65-1.83,4.51-3.12,3.74-2.57,8.73-6,13.71-9.43,2.5-1.71,5-3.41,7.34-5.01,2.35-1.59,4.54-3.08,6.41-4.36,1.88-1.27,3.44-2.33,4.54-3.08.55-.37.98-.66,1.27-.86.29-.2.45-.3.45-.3l.28.4s-.15.11-.45.31c-.29.2-.72.5-1.26.87-1.09.75-2.65,1.82-4.52,3.11-1.87,1.29-4.05,2.78-6.39,4.39-2.34,1.6-4.84,3.31-7.34,5.02-5.01,3.4-10.01,6.8-13.77,9.35-1.88,1.27-3.45,2.33-4.54,3.07-1.1.73-1.72,1.17-1.72,1.17l-.25-.37Z"/>
          <path class="cls-3" d="m208.92,98.31s2.98-2.06,7.45-5.15c2.23-1.55,4.84-3.35,7.63-5.28,2.8-1.92,5.78-3.98,8.77-6.03,2.99-2.04,5.99-4.08,8.79-5.99,2.81-1.9,5.44-3.68,7.69-5.2,4.51-3.04,7.51-5.06,7.51-5.06l.31.46s-2.98,2.06-7.45,5.15c-2.24,1.54-4.85,3.34-7.64,5.27-2.8,1.92-5.79,3.96-8.78,6.01-3,2.03-6,4.07-8.81,5.97-2.82,1.9-5.44,3.67-7.7,5.19-4.51,3.04-7.51,5.06-7.51,5.06l-.27-.39Z"/>
          <path class="cls-3" d="m202.27,97.05s.87-.59,2.38-1.65c.76-.52,1.68-1.17,2.74-1.9,1.06-.73,2.25-1.56,3.55-2.47,2.6-1.81,5.63-3.91,8.88-6.17,3.26-2.25,6.73-4.64,10.21-7.04,1.74-1.19,3.48-2.38,5.2-3.55,1.72-1.17,3.41-2.31,5.05-3.42,3.28-2.21,6.34-4.27,8.97-6.04,5.26-3.53,8.76-5.88,8.76-5.88l.33.49s-3.46,2.41-8.66,6.02c-2.6,1.8-5.64,3.91-8.89,6.16-1.63,1.12-3.31,2.28-5.03,3.46-1.71,1.17-3.46,2.36-5.2,3.55-3.5,2.36-6.99,4.73-10.27,6.95-3.28,2.21-6.35,4.26-8.98,6.03-1.31.88-2.52,1.69-3.59,2.41-1.07.72-2,1.33-2.76,1.86-1.54,1.02-2.41,1.62-2.41,1.62l-.28-.41Z"/>
          <path class="cls-3" d="m195.62,95.8s.25-.17.71-.49c.46-.32,1.14-.8,2.01-1.4,1.73-1.21,4.2-2.93,7.16-5,2.96-2.07,6.42-4.48,10.12-7.07,1.85-1.29,3.77-2.62,5.72-3.97,1.95-1.34,3.92-2.73,5.92-4.08,1.99-1.36,3.98-2.72,5.94-4.05,1.97-1.33,3.9-2.63,5.77-3.9,3.75-2.51,7.26-4.86,10.26-6.87,6.01-4.01,10.02-6.68,10.02-6.68l.34.49s-3.95,2.76-9.87,6.9c-2.96,2.07-6.42,4.48-10.13,7.06-1.86,1.28-3.78,2.61-5.73,3.96-1.96,1.34-3.95,2.7-5.94,4.06-1.98,1.36-3.99,2.7-5.95,4.03-1.97,1.32-3.91,2.62-5.78,3.88-3.76,2.51-7.26,4.85-10.27,6.86-3,2.01-5.51,3.68-7.26,4.85-.88.59-1.56,1.05-2.03,1.36-.47.32-.72.49-.72.49l-.28-.41Z"/>
          <path class="cls-3" d="m188.99,94.56s.28-.19.8-.55c.52-.36,1.28-.9,2.26-1.57,1.94-1.36,4.71-3.3,8.04-5.63,3.32-2.34,7.2-5.06,11.35-7.98,2.08-1.46,4.23-2.96,6.41-4.49,2.18-1.53,4.41-3.06,6.65-4.6l1.67-1.15c.56-.38,1.12-.76,1.68-1.14,1.11-.77,2.23-1.51,3.33-2.26,1.11-.75,2.2-1.48,3.28-2.21.55-.36,1.08-.73,1.61-1.09.54-.35,1.07-.71,1.6-1.06,4.23-2.81,8.18-5.43,11.56-7.68,6.76-4.5,11.28-7.49,11.28-7.49l.33.49s-4.43,3.11-11.08,7.78c-3.32,2.33-7.2,5.06-11.36,7.98-.52.36-1.05.73-1.57,1.1-.53.37-1.07.72-1.6,1.11-1.07.74-2.16,1.5-3.26,2.25-1.1.75-2.2,1.53-3.32,2.28-.56.38-1.11.76-1.67,1.15l-1.68,1.14c-2.24,1.52-4.48,3.04-6.7,4.52-2.22,1.48-4.4,2.93-6.51,4.34-4.23,2.81-8.18,5.43-11.56,7.67-3.38,2.25-6.2,4.12-8.17,5.44-.98.66-1.76,1.18-2.29,1.53-.53.36-.81.55-.81.55l-.27-.39Z"/>
          <path class="cls-3" d="m182.36,93.33s.31-.21.89-.61c.58-.4,1.42-1,2.5-1.75,2.15-1.51,5.23-3.67,8.92-6.27,3.68-2.6,7.98-5.64,12.58-8.9,1.15-.81,2.32-1.64,3.51-2.48.59-.42,1.19-.84,1.78-1.27.6-.42,1.21-.84,1.81-1.27.31-.21.61-.43.91-.65.3-.22.61-.42.92-.63.31-.21.61-.43.91-.64l.92-.64c1.23-.85,2.47-1.71,3.7-2.56,1.24-.85,2.48-1.7,3.71-2.55.63-.41,1.24-.84,1.86-1.25.31-.21.62-.41.93-.62l.92-.63c2.46-1.64,4.89-3.26,7.23-4.82,4.71-3.1,9.1-6,12.87-8.48,3.76-2.49,6.9-4.56,9.09-6.01,2.19-1.46,3.44-2.29,3.44-2.29l.31.46s-1.23.86-3.39,2.37c-2.15,1.52-5.22,3.69-8.9,6.29-3.68,2.61-7.98,5.64-12.58,8.9-2.31,1.62-4.69,3.29-7.12,4.98l-.92.63c-.3.21-.61.43-.91.64-.61.43-1.23.84-1.84,1.28-1.24.84-2.48,1.69-3.72,2.53-1.25.84-2.49,1.68-3.73,2.52l-.93.62c-.31.2-.63.4-.93.62-.31.21-.61.42-.92.63-.31.2-.63.4-.93.61-.61.41-1.23.82-1.84,1.23-.61.4-1.22.8-1.83,1.2-1.21.8-2.41,1.59-3.58,2.37-4.71,3.1-9.1,6-12.87,8.48-3.76,2.49-6.89,4.57-9.08,6.03-1.09.73-1.95,1.3-2.54,1.7-.59.39-.9.6-.9.6l-.24-.36Z"/>
          <path class="cls-3" d="m175.73,92.1s.09-.06.25-.17.41-.28.73-.51c.64-.44,1.57-1.09,2.75-1.92,2.37-1.66,5.74-4.04,9.8-6.89,2.02-1.43,4.21-2.99,6.53-4.63,2.31-1.65,4.75-3.39,7.27-5.19,1.26-.9,2.53-1.84,3.84-2.74.65-.47,1.3-.93,1.95-1.41.67-.45,1.32-.94,1.98-1.4,2.64-1.91,5.37-3.77,8.07-5.67,5.44-3.76,10.95-7.4,16.14-10.79,5.19-3.39,10.03-6.56,14.18-9.27,4.14-2.73,7.59-5.01,10-6.6,2.41-1.6,3.78-2.52,3.78-2.52l.28.41s-1.35.95-3.72,2.61c-2.36,1.67-5.74,4.06-9.78,6.92-4.04,2.88-8.75,6.24-13.79,9.84-5.04,3.6-10.44,7.42-15.92,11.12-2.75,1.83-5.48,3.7-8.22,5.46-.68.45-1.36.88-2.03,1.34-.68.44-1.35.88-2.02,1.31-1.32.89-2.66,1.73-3.95,2.58-2.59,1.7-5.1,3.33-7.48,4.89-2.37,1.56-4.62,3.04-6.69,4.4-4.13,2.74-7.58,5.02-9.99,6.62-1.2.81-2.15,1.44-2.79,1.87-.32.21-.57.38-.73.49-.16.11-.25.17-.25.17l-.22-.32Z"/>
          <path class="cls-3" d="m169.11,90.87s1.48-1.03,4.07-2.83c2.58-1.81,6.27-4.4,10.69-7.51,2.2-1.57,4.59-3.26,7.11-5.06,2.52-1.81,5.17-3.71,7.91-5.69,2.74-1.98,5.57-4.02,8.45-6.1,2.86-2.1,5.86-4.1,8.83-6.14,2.98-2.03,5.95-4.07,8.88-6.07.73-.5,1.46-1,2.19-1.49.36-.25.74-.47,1.11-.71.36-.24.73-.48,1.1-.71,1.47-.94,2.89-1.89,4.33-2.79,2.84-1.84,5.58-3.61,8.18-5.29,1.3-.84,2.56-1.66,3.79-2.46,1.22-.8,2.4-1.57,3.53-2.31,4.51-2.98,8.27-5.46,10.91-7.19,2.62-1.75,4.12-2.75,4.12-2.75l.24.36s-1.48,1.03-4.06,2.84c-2.57,1.82-6.25,4.42-10.67,7.55-1.1.79-2.25,1.6-3.43,2.45-1.18.85-2.41,1.73-3.67,2.63-2.51,1.81-5.16,3.72-7.91,5.69-1.36,1.01-2.77,1.99-4.17,3.01-.35.26-.7.51-1.06.76-.36.25-.7.53-1.07.77-.72.5-1.45,1-2.18,1.5-2.93,2-5.91,4.03-8.88,6.07-2.98,2.03-5.94,4.09-8.93,5.99-2.98,1.93-5.91,3.82-8.75,5.65-2.84,1.84-5.58,3.62-8.17,5.3-2.59,1.7-5.04,3.3-7.3,4.79-4.5,2.99-8.26,5.48-10.88,7.22-2.62,1.75-4.12,2.76-4.12,2.76l-.18-.27Z"/>
          <path class="cls-3" d="m162.48,89.65s.4-.28,1.15-.8c.75-.52,1.85-1.29,3.25-2.27,1.4-.98,3.1-2.17,5.05-3.53,1.95-1.37,4.14-2.91,6.53-4.6,2.39-1.7,4.97-3.53,7.7-5.48,2.73-1.95,5.6-4.02,8.56-6.17,2.97-2.14,5.99-4.42,9.13-6.64,3.17-2.17,6.39-4.37,9.62-6.57,3.22-2.2,6.44-4.4,9.62-6.57,1.59-1.08,3.16-2.16,4.71-3.22.39-.26.77-.53,1.17-.78.39-.26.8-.49,1.18-.75.78-.51,1.56-1,2.33-1.49,3.09-1.97,6.07-3.87,8.88-5.7,2.81-1.83,5.47-3.56,7.93-5.15,2.45-1.61,4.69-3.09,6.67-4.39,1.98-1.31,3.71-2.46,5.13-3.4,2.84-1.9,4.46-2.98,4.46-2.98l.21.3s-1.6,1.12-4.4,3.07c-1.4.98-3.09,2.18-5.04,3.54-1.94,1.37-4.13,2.93-6.52,4.62-2.38,1.71-4.96,3.56-7.68,5.51-2.73,1.95-5.58,4.04-8.54,6.2-.74.54-1.48,1.09-2.23,1.63-.38.26-.75.56-1.13.83-.38.28-.77.54-1.16.8-1.55,1.06-3.13,2.14-4.71,3.22-3.17,2.17-6.39,4.37-9.62,6.57-3.22,2.2-6.44,4.4-9.62,6.57-3.21,2.11-6.43,4.1-9.5,6.09-3.08,1.98-6.06,3.89-8.86,5.73-2.81,1.84-5.46,3.58-7.91,5.18-2.44,1.62-4.68,3.1-6.66,4.41-1.98,1.32-3.7,2.47-5.12,3.42-1.42.95-2.53,1.7-3.29,2.21-.76.51-1.16.79-1.16.79l-.15-.22Z"/>
          <path class="cls-3" d="m155.85,88.42s1.73-1.2,4.75-3.29c1.51-1.05,3.34-2.32,5.44-3.79,2.1-1.47,4.46-3.13,7.04-4.94,2.57-1.82,5.35-3.8,8.3-5.89,2.93-2.12,6.01-4.35,9.21-6.65,1.59-1.17,3.2-2.35,4.84-3.55.82-.6,1.64-1.21,2.46-1.82.83-.6,1.69-1.17,2.54-1.75,3.41-2.33,6.88-4.7,10.35-7.07,3.47-2.37,6.94-4.74,10.35-7.07,1.71-1.17,3.4-2.32,5.07-3.47.42-.29.84-.57,1.25-.85.42-.28.82-.58,1.25-.83.43-.26.85-.53,1.26-.8.42-.26.84-.53,1.26-.79,3.34-2.09,6.54-4.15,9.58-6.11,3.04-1.94,5.89-3.83,8.53-5.55,2.63-1.74,5.04-3.33,7.18-4.74,2.13-1.42,3.99-2.66,5.52-3.68,3.05-2.05,4.8-3.21,4.8-3.21l.16.24s-1.72,1.2-4.74,3.3c-1.51,1.05-3.33,2.34-5.43,3.8-2.09,1.48-4.45,3.15-7.02,4.97-2.56,1.84-5.35,3.8-8.27,5.93-2.93,2.12-6.01,4.35-9.18,6.7-.4.29-.79.59-1.19.88-.4.29-.81.58-1.21.88-.39.32-.82.58-1.23.87-.42.28-.83.57-1.25.85-1.67,1.14-3.37,2.3-5.07,3.47-3.41,2.33-6.88,4.7-10.35,7.07s-6.94,4.74-10.35,7.07c-.86.58-1.7,1.18-2.56,1.73-.87.55-1.73,1.09-2.59,1.63-1.71,1.09-3.4,2.16-5.07,3.21-3.31,2.14-6.51,4.2-9.55,6.16-3.02,1.98-5.87,3.86-8.51,5.59-2.62,1.74-5.03,3.34-7.16,4.76-2.13,1.43-3.98,2.67-5.51,3.69-3.05,2.05-4.79,3.23-4.79,3.23l-.12-.17Z"/>
          <path class="cls-3" d="m149.23,87.19s1.85-1.28,5.09-3.52c1.62-1.12,3.58-2.49,5.83-4.05,2.25-1.57,4.78-3.35,7.55-5.28,2.77-1.93,5.74-4.06,8.9-6.3,3.15-2.25,6.46-4.63,9.86-7.13.86-.61,1.71-1.25,2.57-1.89.88-.61,1.73-1.27,2.61-1.92.87-.65,1.75-1.3,2.63-1.95.89-.64,1.81-1.25,2.73-1.87,3.66-2.5,7.37-5.04,11.09-7.57,3.72-2.54,7.43-5.08,11.09-7.57,1.83-1.25,3.64-2.49,5.44-3.71.9-.61,1.78-1.24,2.69-1.8.45-.28.91-.57,1.36-.85.45-.29.89-.58,1.35-.84,3.57-2.25,7-4.46,10.26-6.55,1.62-1.05,3.2-2.08,4.72-3.07,1.52-1,2.99-1.96,4.41-2.88,2.81-1.86,5.39-3.57,7.68-5.09,2.28-1.52,4.27-2.85,5.9-3.95,3.27-2.19,5.14-3.45,5.14-3.45l.13.18s-1.85,1.28-5.08,3.53c-1.61,1.13-3.57,2.5-5.82,4.07-2.24,1.58-4.77,3.36-7.53,5.31-1.37.98-2.81,2-4.29,3.06-1.48,1.06-3.01,2.16-4.58,3.28-3.13,2.27-6.44,4.66-9.83,7.17-.42.33-.84.64-1.28.95-.43.32-.85.64-1.28.96-.86.65-1.76,1.24-2.65,1.85-1.79,1.22-3.61,2.46-5.44,3.71-3.66,2.5-7.37,5.04-11.09,7.57-3.72,2.54-7.43,5.08-11.09,7.57-.92.62-1.82,1.26-2.74,1.86-.93.58-1.86,1.16-2.78,1.74-.92.58-1.84,1.14-2.73,1.73-.91.57-1.81,1.14-2.69,1.71-3.56,2.27-6.98,4.48-10.22,6.6-3.23,2.13-6.3,4.12-9.1,6-2.81,1.87-5.38,3.59-7.66,5.11-2.28,1.53-4.26,2.86-5.9,3.96-3.26,2.2-5.13,3.46-5.13,3.46l-.09-.13Z"/>
          <path class="cls-3" d="m142.6,85.96s1.97-1.36,5.43-3.75c1.72-1.2,3.82-2.65,6.22-4.31,2.4-1.67,5.1-3.56,8.05-5.61,2.94-2.07,6.13-4.3,9.49-6.7,3.36-2.38,6.89-4.92,10.53-7.57,1.82-1.32,3.67-2.67,5.53-4.05.93-.69,1.87-1.38,2.81-2.08.93-.72,1.91-1.37,2.88-2.03,3.9-2.66,7.86-5.37,11.82-8.07,3.96-2.7,7.92-5.41,11.82-8.07,1.95-1.33,3.88-2.65,5.79-3.96.94-.67,1.93-1.26,2.9-1.87.97-.61,1.93-1.21,2.88-1.81,3.8-2.41,7.46-4.76,10.91-7,3.46-2.24,6.71-4.39,9.72-6.36,6-3.97,10.98-7.31,14.46-9.65,3.48-2.35,5.47-3.68,5.47-3.68l.09.14s-1.97,1.37-5.42,3.75c-3.45,2.39-8.37,5.82-14.25,9.96-2.93,2.08-6.12,4.33-9.46,6.74-3.35,2.4-6.87,4.96-10.49,7.62-.9.67-1.81,1.35-2.73,2.03-.92.68-1.83,1.38-2.8,2.02-1.91,1.31-3.84,2.63-5.79,3.96-3.9,2.66-7.86,5.37-11.82,8.07s-7.92,5.41-11.82,8.07c-.98.66-1.94,1.34-2.94,1.94-.99.62-1.98,1.24-2.96,1.86-1.96,1.23-3.89,2.46-5.78,3.68-3.79,2.43-7.44,4.79-10.88,7.06-3.45,2.25-6.69,4.41-9.69,6.4-2.99,2-5.73,3.83-8.16,5.46-2.42,1.63-4.54,3.06-6.28,4.23-3.48,2.35-5.46,3.69-5.46,3.69l-.06-.09Z"/>
          <path class="cls-3" d="m135.96,84.72s1.98-1.36,5.43-3.74c1.73-1.19,3.82-2.64,6.23-4.3,2.4-1.67,5.11-3.55,8.06-5.6,2.95-2.06,6.15-4.29,9.51-6.67,3.37-2.37,6.91-4.9,10.56-7.52,1.82-1.32,3.67-2.66,5.55-4.01,1.87-1.37,3.75-2.76,5.66-4.16.47-.35.96-.68,1.43-1.05.47-.36.95-.71,1.43-1.07.98-.67,1.97-1.34,2.95-2.02,1.97-1.35,3.95-2.7,5.93-4.05,3.96-2.7,7.92-5.41,11.82-8.07,1.95-1.33,3.88-2.65,5.79-3.96.96-.65,1.9-1.3,2.85-1.94.47-.32.94-.65,1.41-.96.48-.3.96-.6,1.43-.9,3.81-2.39,7.47-4.74,10.94-6.97,3.47-2.23,6.73-4.37,9.74-6.34,3-1.99,5.75-3.8,8.19-5.42,2.43-1.62,4.55-3.04,6.29-4.2,3.48-2.34,5.47-3.68,5.47-3.68l.13.18s-1.97,1.37-5.42,3.76c-1.72,1.2-3.81,2.66-6.2,4.34-2.39,1.68-5.08,3.58-8.02,5.65-2.93,2.09-6.1,4.35-9.45,6.76-3.34,2.42-6.86,4.97-10.47,7.66-.45.33-.91.67-1.36,1.01-.46.33-.93.65-1.4.97-.94.64-1.89,1.29-2.85,1.94-1.91,1.31-3.84,2.63-5.79,3.96-3.9,2.66-7.86,5.37-11.82,8.07-1.98,1.35-3.96,2.7-5.93,4.05-.99.67-1.97,1.35-2.95,2.02-.51.31-1.01.63-1.51.94-.51.3-1,.64-1.5.95-1.99,1.26-3.97,2.52-5.93,3.76-1.95,1.25-3.87,2.49-5.76,3.71-3.77,2.45-7.41,4.83-10.85,7.11-3.44,2.27-6.68,4.44-9.67,6.43-2.99,2.01-5.72,3.84-8.15,5.47-2.42,1.64-4.53,3.06-6.27,4.24-3.47,2.35-5.46,3.7-5.46,3.7l-.04-.06Z"/>
          <path class="cls-3" d="m129.33,83.48s1.98-1.36,5.44-3.73c3.45-2.38,8.39-5.79,14.3-9.88,1.48-1.03,3.02-2.09,4.61-3.2,1.59-1.11,3.23-2.26,4.92-3.44,1.69-1.18,3.42-2.4,5.19-3.64,1.76-1.27,3.58-2.52,5.4-3.84,3.67-2.6,7.45-5.31,11.26-8.09.96-.69,1.91-1.39,2.87-2.1.97-.69,1.93-1.4,2.89-2.11.97-.69,1.93-1.41,2.9-2.12.98-.69,1.98-1.36,2.96-2.03,7.92-5.41,15.84-10.82,23.27-15.89,3.79-2.42,7.45-4.76,10.93-6.98,3.47-2.23,6.73-4.36,9.74-6.33,1.5-.99,2.95-1.93,4.32-2.83,1.37-.9,2.66-1.76,3.88-2.57,2.43-1.62,4.55-3.03,6.3-4.19,3.49-2.34,5.48-3.67,5.48-3.67l.16.23s-1.97,1.37-5.41,3.77c-1.72,1.2-3.8,2.67-6.2,4.34-1.19.84-2.47,1.74-3.8,2.68-1.34.95-2.74,1.95-4.21,2.99-2.93,2.09-6.1,4.36-9.44,6.78-3.33,2.43-6.84,4.99-10.48,7.64-7.42,5.07-15.34,10.48-23.26,15.89-.99.67-1.98,1.36-2.97,2.02-1.02.64-2.03,1.27-3.03,1.93-1.01.64-2.02,1.27-3.02,1.92-1.01.64-2.01,1.27-3,1.91-3.98,2.54-7.88,5.08-11.63,7.54-1.89,1.22-3.72,2.46-5.54,3.63-1.8,1.2-3.56,2.37-5.28,3.51-1.71,1.14-3.38,2.25-5,3.33-1.61,1.08-3.16,2.13-4.66,3.13-5.96,4.03-10.93,7.38-14.4,9.73-3.47,2.36-5.45,3.71-5.45,3.71l-.03-.05Z"/>
          <path class="cls-3" d="m122.69,82.24s7.9-5.44,19.76-13.59c2.96-2.05,6.16-4.27,9.54-6.62,3.37-2.37,6.93-4.86,10.61-7.44,3.68-2.59,7.46-5.28,11.3-8.03,3.83-2.76,7.72-5.57,11.61-8.38,1.95-1.4,3.88-2.82,5.84-4.19,1.97-1.35,3.94-2.69,5.89-4.02,3.9-2.66,7.73-5.28,11.45-7.82.94-.62,1.88-1.21,2.8-1.82.47-.29.93-.59,1.39-.89.47-.28.92-.59,1.37-.89,1.82-1.17,3.6-2.32,5.33-3.43,3.46-2.24,6.73-4.37,9.75-6.32,3.01-1.98,5.76-3.79,8.2-5.39,2.43-1.62,4.56-3.03,6.3-4.19,3.49-2.33,5.48-3.66,5.48-3.66l.19.28s-1.97,1.37-5.41,3.78c-1.72,1.21-3.8,2.67-6.19,4.35-2.38,1.69-5.07,3.6-8.01,5.68-2.92,2.1-6.09,4.37-9.43,6.78-1.67,1.21-3.38,2.45-5.14,3.72-.44.32-.89.62-1.32.95-.44.32-.89.64-1.33.97-.91.63-1.8,1.3-2.72,1.95-3.71,2.54-7.55,5.16-11.44,7.82-1.95,1.33-3.91,2.67-5.89,4.02-1.99,1.33-4.01,2.61-6.03,3.92-4.03,2.6-8.06,5.2-12.03,7.77-3.96,2.57-7.85,5.12-11.59,7.6-3.74,2.49-7.36,4.9-10.79,7.18-3.42,2.3-6.65,4.47-9.64,6.48-11.91,8.08-19.84,13.46-19.84,13.46l-.02-.03Z"/>
          <path class="cls-3" d="m116.05,80.99s7.91-5.43,19.77-13.57c2.96-2.05,6.16-4.26,9.55-6.6,3.38-2.36,6.95-4.84,10.64-7.41,3.68-2.59,7.47-5.27,11.33-7.98,1.92-1.37,3.86-2.75,5.81-4.13,1.94-1.39,3.89-2.79,5.84-4.18,3.91-2.78,7.8-5.58,11.67-8.3,3.87-2.71,7.69-5.35,11.43-7.84,3.74-2.5,7.38-4.86,10.83-7.12,3.45-2.25,6.72-4.38,9.73-6.35,3.01-1.98,5.76-3.79,8.2-5.39,2.44-1.61,4.56-3.02,6.31-4.18,1.75-1.16,3.12-2.08,4.05-2.7.93-.63,1.43-.95,1.43-.95l.23.33s-.49.35-1.41.99c-.92.64-2.27,1.59-3.99,2.79-1.72,1.21-3.8,2.67-6.19,4.36-2.38,1.69-5.07,3.6-8.01,5.68-2.93,2.09-6.1,4.36-9.45,6.76-3.36,2.39-6.89,4.93-10.57,7.5-3.68,2.58-7.53,5.18-11.46,7.8-3.93,2.61-7.96,5.23-11.97,7.85-2.01,1.31-4.02,2.62-6.02,3.92-2,1.31-3.99,2.61-5.96,3.91-3.94,2.61-7.81,5.17-11.56,7.65-3.74,2.5-7.35,4.92-10.77,7.21-3.42,2.31-6.65,4.49-9.63,6.5-11.9,8.09-19.83,13.48-19.83,13.48v-.02Z"/>
          <path class="cls-3" d="m109.41,79.75s7.91-5.42,19.78-13.56c2.96-2.04,6.17-4.25,9.56-6.59,3.39-2.35,6.96-4.82,10.66-7.38,7.38-5.14,15.23-10.65,23.05-16.21,7.83-5.55,15.64-11.11,23.08-16.17,3.71-2.54,7.34-4.93,10.77-7.21,3.44-2.27,6.7-4.41,9.7-6.39,3-1.98,5.76-3.79,8.2-5.4,2.44-1.61,4.56-3.02,6.31-4.18,1.75-1.16,3.12-2.08,4.05-2.7.93-.63,1.43-.96,1.43-.96l.26.38s-.49.35-1.41.99c-.92.64-2.27,1.59-3.99,2.79-1.72,1.21-3.8,2.67-6.19,4.36-2.39,1.69-5.08,3.59-8.01,5.67-2.94,2.08-6.12,4.33-9.48,6.71-3.37,2.37-6.92,4.87-10.64,7.41-7.42,5.09-15.44,10.34-23.45,15.62-8.02,5.26-16.01,10.58-23.48,15.58-3.73,2.51-7.33,4.94-10.75,7.24-3.41,2.31-6.64,4.5-9.62,6.51-11.89,8.1-19.82,13.49-19.82,13.49h0Z"/>
          <path class="cls-3" d="m102.77,78.5s7.91-5.42,19.79-13.54c2.97-2.04,6.18-4.24,9.57-6.58,3.39-2.34,6.97-4.81,10.67-7.37,3.69-2.57,7.51-5.22,11.38-7.91,3.87-2.71,7.79-5.46,11.72-8.21,3.92-2.76,7.84-5.52,11.71-8.24,3.87-2.71,7.67-5.37,11.38-7.92.93-.64,1.84-1.27,2.75-1.89.46-.3.92-.61,1.36-.92.45-.31.9-.61,1.35-.92,1.79-1.21,3.55-2.39,5.26-3.54,3.42-2.3,6.67-4.46,9.66-6.44,11.99-7.96,19.98-13.27,19.98-13.27l.28.4s-7.85,5.51-19.62,13.78c-2.94,2.07-6.13,4.31-9.52,6.66-1.69,1.17-3.43,2.38-5.21,3.61-.45.31-.89.61-1.35.92-.45.3-.91.61-1.36.93-.91.62-1.84,1.25-2.77,1.88-3.72,2.53-7.59,5.1-11.51,7.72-3.93,2.61-7.93,5.26-11.93,7.91-3.99,2.66-7.98,5.32-11.91,7.93-3.92,2.63-7.78,5.22-11.51,7.72-3.73,2.52-7.33,4.95-10.74,7.26-3.41,2.32-6.63,4.51-9.61,6.53-11.89,8.1-19.81,13.51-19.81,13.51h0Z"/>
          <path class="cls-3" d="m103.94,71.91s7.43-5.08,18.57-12.71c5.56-3.83,12.04-8.3,18.99-13.08,3.47-2.4,7.05-4.89,10.69-7.41,3.63-2.54,7.32-5.11,11.01-7.69,3.69-2.58,7.38-5.16,11.01-7.69,3.64-2.53,7.22-5.01,10.69-7.42,1.74-1.19,3.45-2.37,5.12-3.51,1.68-1.14,3.33-2.25,4.93-3.33,1.6-1.09,3.16-2.14,4.67-3.15,1.51-1.01,2.96-2.01,4.37-2.93,11.23-7.49,18.72-12.49,18.72-12.49l.29.42s-7.38,5.16-18.44,12.89c-1.37.98-2.83,1.96-4.32,3.01-1.49,1.05-3.04,2.11-4.63,3.21-1.59,1.1-3.23,2.23-4.9,3.38-1.68,1.14-3.39,2.31-5.14,3.5-3.5,2.35-7.12,4.79-10.8,7.26-3.68,2.46-7.43,4.96-11.17,7.46-3.74,2.5-7.48,5-11.17,7.46-3.68,2.47-7.29,4.9-10.79,7.26-6.99,4.73-13.51,9.15-19.09,12.93-11.15,7.6-18.59,12.67-18.59,12.67h0Z"/>
          <path class="cls-3" d="m105.19,65.27s6.93-4.75,17.33-11.87c5.19-3.57,11.25-7.74,17.73-12.21,3.24-2.24,6.59-4.56,9.99-6.91,3.39-2.36,6.84-4.76,10.29-7.16,3.45-2.4,6.9-4.8,10.29-7.16,3.39-2.37,6.74-4.68,9.99-6.91,3.25-2.23,6.39-4.38,9.37-6.42,2.99-2.02,5.82-3.93,8.43-5.7,5.23-3.51,9.59-6.44,12.65-8.49,3.06-2.04,4.8-3.21,4.8-3.21l.29.42s-1.72,1.2-4.74,3.31c-3.02,2.1-7.33,5.1-12.51,8.69-2.59,1.79-5.4,3.73-8.37,5.78-2.98,2.03-6.13,4.18-9.38,6.4-3.26,2.21-6.63,4.49-10.07,6.79-3.43,2.3-6.92,4.64-10.41,6.98-3.49,2.34-6.98,4.68-10.41,6.98-3.43,2.31-6.8,4.59-10.07,6.79-6.52,4.42-12.61,8.54-17.82,12.08-10.42,7.1-17.36,11.83-17.36,11.83h0Z"/>
          <path class="cls-3" d="m106.44,58.62s6.44-4.41,16.1-11.03c4.82-3.32,10.45-7.19,16.48-11.34,6.02-4.16,12.43-8.61,18.85-13.05,6.42-4.44,12.84-8.88,18.85-13.05,3.02-2.07,5.94-4.07,8.7-5.96,2.77-1.88,5.4-3.67,7.82-5.31,4.85-3.27,8.9-6,11.73-7.91,1.42-.95,2.53-1.7,3.29-2.21.76-.51,1.17-.78,1.17-.78l.28.4s-.4.28-1.15.8c-.75.52-1.85,1.28-3.26,2.26-2.81,1.94-6.82,4.72-11.63,8.05-2.41,1.66-5.03,3.45-7.79,5.35-2.77,1.89-5.69,3.88-8.72,5.94-6.07,4.09-12.54,8.45-19.01,12.82-6.47,4.36-12.94,8.73-19.01,12.82-6.06,4.11-11.71,7.94-16.55,11.23-9.68,6.59-16.13,10.98-16.13,10.98h0Z"/>
          <path class="cls-3" d="m107.69,51.98s5.95-4.07,14.87-10.18c8.92-6.11,20.78-14.3,32.64-22.49,5.93-4.09,11.86-8.19,17.42-12.03,2.79-1.91,5.48-3.76,8.04-5.51,2.56-1.75,4.98-3.4,7.21-4.92,8.95-6.06,14.92-10.1,14.92-10.1l.26.38s-5.93,4.09-14.83,10.23c-2.23,1.53-4.65,3.18-7.2,4.93-2.56,1.74-5.26,3.58-8.05,5.48-5.6,3.78-11.57,7.82-17.54,11.86-11.95,8.06-23.89,16.14-32.82,22.23-8.93,6.09-14.89,10.14-14.89,10.14v-.02Z"/>
          <path class="cls-3" d="m108.94,45.33s5.45-3.74,13.63-9.34c8.17-5.62,19.06-13.12,29.95-20.61,5.44-3.75,10.89-7.5,15.99-11.01,5.11-3.5,9.89-6.77,13.98-9.57,8.2-5.57,13.67-9.28,13.67-9.28l.23.33s-5.45,3.74-13.62,9.36c-4.1,2.79-8.88,6.05-14,9.54-5.13,3.48-10.6,7.19-16.07,10.9-10.94,7.42-21.88,14.84-30.09,20.4-8.19,5.58-13.66,9.3-13.66,9.3v-.02Z"/>
          <path class="cls-3" d="m110.19,38.69s19.83-13.61,39.66-27.22c9.91-6.8,19.83-13.61,27.27-18.71,7.46-5.08,12.42-8.46,12.42-8.46l.19.28s-4.96,3.4-12.4,8.5c-7.46,5.07-17.4,11.83-27.35,18.59-19.89,13.52-39.78,27.04-39.78,27.04v-.02Z"/>
          <path class="cls-3" d="m111.44,32.05s17.86-12.25,35.72-24.51c8.93-6.12,17.86-12.25,24.56-16.84,6.71-4.58,11.18-7.63,11.18-7.63l.16.23s-4.47,3.06-11.17,7.65c-6.72,4.57-15.67,10.66-24.62,16.75-17.91,12.18-35.82,24.37-35.82,24.37v-.02Z"/>
          <polygon class="cls-3" points="112.69 25.41 176.28 -18.16 176.41 -17.97 112.7 25.42 112.69 25.41"/>
          <polygon class="cls-3" points="113.94 18.76 169.66 -19.38 169.75 -19.25 113.95 18.78 113.94 18.76"/>
          <polygon class="cls-3" points="115.19 12.12 163.03 -20.62 163.1 -20.51 115.2 12.14 115.19 12.12"/>
          <polygon class="cls-3" points="116.44 5.48 156.4 -21.85 156.45 -21.78 116.46 5.5 116.44 5.48"/>
        </g>
      </g>
      <g>
        <path class="cls-3" d="m45.12,159.88c1.12,1.38,1.67,2.98,1.67,4.81,0,2.14-.52,3.91-1.56,5.32s-2.4,2.45-4.09,3.12c-1.69.67-3.54,1-5.56,1h-10v-33.62h8.7c3.44,0,6.11.71,8,2.12,1.89,1.41,2.84,3.53,2.84,6.35,0,1.77-.4,3.31-1.19,4.63-.79,1.32-1.91,2.35-3.37,3.09,1.92.74,3.44,1.81,4.56,3.19Zm-15.02-4.67h5.12c1.74,0,3.05-.5,3.93-1.49.88-.99,1.33-2.26,1.33-3.81,0-1.7-.53-2.98-1.58-3.81-1.05-.84-2.53-1.26-4.42-1.26h-4.37v10.37Zm10.14,13.42c1.27-.88,1.91-2.18,1.91-3.88s-.69-3.07-2.07-3.91c-1.38-.84-3.05-1.26-5-1.26h-4.97v10.37h5.3c1.95,0,3.56-.44,4.84-1.32Z"/>
        <path class="cls-3" d="m86.27,174.13l-7.9-12.42c-.25.03-.62.05-1.12.05h-4.98v12.37h-4.51v-33.62h8.98c2.29,0,4.34.4,6.14,1.21,1.8.81,3.21,1.99,4.23,3.56,1.02,1.57,1.53,3.45,1.53,5.65,0,2.08-.46,3.98-1.37,5.72-.92,1.74-2.32,3.05-4.21,3.95l8.46,13.53h-5.25Zm-3.88-18.65c1.07-1.27,1.6-2.73,1.6-4.37,0-.99-.23-1.97-.68-2.93s-1.16-1.76-2.14-2.4c-.98-.64-2.21-.95-3.7-.95h-5.21v12.55h4.88c2.42,0,4.16-.64,5.23-1.91Z"/>
        <path class="cls-3" d="m116.36,140.51v33.62h-4.51v-33.62h4.51Z"/>
        <path class="cls-3" d="m159.28,140.51v4.32h-9.02v29.29h-4.51v-29.29h-8.79v-4.32h22.32Z"/>
        <path class="cls-3" d="m201.73,140.51v4.32h-17.34v10.23h15.48v4.32h-15.48v10.37h18v4.37h-22.51v-33.62h21.85Z"/>
        <path class="cls-3" d="m227.21,140.51v29.25h17.11v4.37h-21.62v-33.62h4.51Z"/>
        <path class="cls-3" d="m269.53,140.51v33.62h-4.51v-33.62h4.51Z"/>
        <path class="cls-3" d="m320.03,140.51v34.74h-.14l-24.69-25.06.09,23.95h-4.56v-34.64h.23l24.64,25.34-.09-24.32h4.51Z"/>
        <path class="cls-3" d="m345.7,155.72l.56-.88,13.77-14.32h5.81l-13.9,14.41,14.69,19.2h-5.72l-12.28-16.32-2.84,2.74.05,13.58h-4.6v-33.62h4.6v13.53l-.14,1.67Z"/>
      </g>
      <g>
        <path class="cls-3" d="m164.65,188.42v34.69h-4.46v-21.76l-12.37,17.53h-.09l-12.14-16.93v21.16h-4.37v-34.69h.05l16.55,23.44,16.79-23.44h.05Z"/>
        <path class="cls-3" d="m207.36,222.57c-1.66.6-3.46.91-5.42.91-3.44,0-6.47-.76-9.09-2.28-2.62-1.52-4.63-3.56-6.05-6.14-1.41-2.57-2.12-5.41-2.12-8.51,0-3.32.71-6.3,2.14-8.95,1.43-2.65,3.4-4.73,5.93-6.23,2.53-1.5,5.39-2.26,8.58-2.26,1.89,0,3.66.25,5.3.74,1.64.5,3.12,1.15,4.42,1.95l-1.81,4.23c-2.57-1.74-5.16-2.6-7.77-2.6-2.17,0-4.18.57-6.02,1.72-1.85,1.15-3.32,2.7-4.42,4.67-1.1,1.97-1.65,4.13-1.65,6.49s.5,4.6,1.51,6.56c1.01,1.95,2.45,3.48,4.33,4.58,1.88,1.1,4.04,1.65,6.49,1.65,3.01,0,5.63-.85,7.86-2.56l1.91,4.05c-1.09.71-2.46,1.37-4.12,1.98Z"/>
        <path class="cls-3" d="m252.3,189.49v4.32h-9.02v29.29h-4.51v-29.29h-8.79v-4.32h22.32Z"/>
      </g>
      <polygon class="cls-3" points="187.46 120.14 175.46 111.97 0 111.97 0 108.97 176.39 108.97 187.51 116.54 199.23 108.97 383.02 108.97 383.02 111.97 200.12 111.97 187.46 120.14"/>
    </g>
  </g>
</svg>