<?xml version="1.0" encoding="UTF-8"?>
<!DOCTYPE svg PUBLIC "-//W3C//DTD SVG 1.1//EN" "http://www.w3.org/Graphics/SVG/1.1/DTD/svg11.dtd">
<svg xmlns="http://www.w3.org/2000/svg" version="1.1" width="149px" height="133px" style="shape-rendering:geometricPrecision; text-rendering:geometricPrecision; image-rendering:optimizeQuality; fill-rule:evenodd; clip-rule:evenodd" xmlns:xlink="http://www.w3.org/1999/xlink">
<g><path style="opacity:1" fill="#fdfcfc" d="M -0.5,-0.5 C 49.1667,-0.5 98.8333,-0.5 148.5,-0.5C 148.5,43.8333 148.5,88.1667 148.5,132.5C 98.8333,132.5 49.1667,132.5 -0.5,132.5C -0.5,88.1667 -0.5,43.8333 -0.5,-0.5 Z"/></g>
<g><path style="opacity:1" fill="#dd7f7e" d="M 61.5,20.5 C 61.573,22.0269 60.9063,23.0269 59.5,23.5C 59.427,21.9731 60.0937,20.9731 61.5,20.5 Z"/></g>
<g><path style="opacity:1" fill="#e39897" d="M 59.5,23.5 C 59.4431,24.609 59.1098,25.609 58.5,26.5C 58.1667,26.5 57.8333,26.5 57.5,26.5C 57.427,24.9731 58.0937,23.9731 59.5,23.5 Z"/></g>
<g><path style="opacity:1" fill="#dc6e68" d="M 57.5,26.5 C 57.8333,26.5 58.1667,26.5 58.5,26.5C 57.5667,29.3702 55.9,31.7036 53.5,33.5C 54.5686,31.0313 55.9019,28.6979 57.5,26.5 Z"/></g>
<g><path style="opacity:1" fill="#e28985" d="M 88.5,31.5 C 89.9063,31.9731 90.573,32.9731 90.5,34.5C 89.0937,34.0269 88.427,33.0269 88.5,31.5 Z"/></g>
<g><path style="opacity:1" fill="#e28883" d="M 50.5,38.5 C 50.573,40.0269 49.9063,41.0269 48.5,41.5C 48.427,39.9731 49.0937,38.9731 50.5,38.5 Z"/></g>
<g><path style="opacity:1" fill="#e07771" d="M 48.5,41.5 C 48.2753,44.5458 46.942,46.8791 44.5,48.5C 45.4676,45.8997 46.8009,43.5664 48.5,41.5 Z"/></g>
<g><path style="opacity:1" fill="#dd7570" d="M 43.5,50.5 C 43.573,52.0269 42.9063,53.0269 41.5,53.5C 41.427,51.9731 42.0937,50.9731 43.5,50.5 Z"/></g>
<g><path style="opacity:1" fill="#df7d78" d="M 41.5,53.5 C 41.2503,55.674 40.2503,57.3406 38.5,58.5C 38.7497,56.326 39.7497,54.6594 41.5,53.5 Z"/></g>
<g><path style="opacity:1" fill="#e06d6a" d="M 38.5,58.5 C 38.573,60.0269 37.9063,61.0269 36.5,61.5C 36.427,59.9731 37.0937,58.9731 38.5,58.5 Z"/></g>
<g><path style="opacity:1" fill="#dd817d" d="M 36.5,61.5 C 36.573,63.0269 35.9063,64.0269 34.5,64.5C 34.427,62.9731 35.0937,61.9731 36.5,61.5 Z"/></g>
<g><path style="opacity:1" fill="#df7b77" d="M 34.5,64.5 C 33.5627,67.2695 32.3961,69.9361 31,72.5C 30.2917,73.3805 29.4584,74.0472 28.5,74.5C 29.5787,70.5753 31.5787,67.242 34.5,64.5 Z"/></g>
<g><path style="opacity:1" fill="#eee2e3" d="M 75.5,30.5 C 80.4016,37.2911 85.0683,44.2911 89.5,51.5C 89.427,53.0269 90.0937,54.0269 91.5,54.5C 91.427,56.0269 92.0937,57.0269 93.5,57.5C 93.427,59.0269 94.0937,60.0269 95.5,60.5C 95.427,62.0269 96.0937,63.0269 97.5,63.5C 99.664,65.822 101.331,68.4887 102.5,71.5C 102.427,73.0269 103.094,74.0269 104.5,74.5C 111.009,83.5219 117.009,92.8552 122.5,102.5C 121.604,101.494 120.938,101.494 120.5,102.5C 116.138,96.4786 111.804,90.4786 107.5,84.5C 107.573,82.9731 106.906,81.9731 105.5,81.5C 101.068,74.2911 96.4016,67.2911 91.5,60.5C 91.573,58.9731 90.9063,57.9731 89.5,57.5C 89.1667,56.8333 88.8333,56.1667 88.5,55.5C 87.9202,53.2512 86.5869,51.5846 84.5,50.5C 81.2339,44.1409 77.5673,37.9742 73.5,32C 70.2785,31.5232 68.6118,33.0232 68.5,36.5C 67.0937,36.9731 66.427,37.9731 66.5,39.5C 64.4042,42.2622 62.7375,45.2622 61.5,48.5C 57.7191,52.6243 54.7191,57.2909 52.5,62.5C 51.0937,62.9731 50.427,63.9731 50.5,65.5C 50.5,66.1667 50.1667,66.5 49.5,66.5C 41.9181,78.6602 34.5848,90.9935 27.5,103.5C 26.1667,104.833 24.8333,106.167 23.5,107.5C 22.391,107.557 21.391,107.89 20.5,108.5C 22.4176,103.657 25.0843,99.3233 28.5,95.5C 30.9754,94.3126 31.9754,92.3126 31.5,89.5C 35.8027,82.854 40.136,76.1873 44.5,69.5C 46.942,67.8791 48.2753,65.5458 48.5,62.5C 49.9063,62.0269 50.573,61.0269 50.5,59.5C 51.1103,57.5659 52.1103,55.8993 53.5,54.5C 55.8218,53.1979 57.1551,51.1979 57.5,48.5C 60.2371,43.362 63.2371,38.362 66.5,33.5C 67.9063,33.0269 68.573,32.0269 68.5,30.5C 70.8333,27.8333 73.1667,27.8333 75.5,30.5 Z"/></g>
<g><path style="opacity:1" fill="#384785" d="M 57.5,60.5 C 56.8505,62.4352 56.5172,64.4352 56.5,66.5C 56.5,66.8333 56.5,67.1667 56.5,67.5C 61.2876,68.8279 66.4543,69.4946 72,69.5C 77.5457,69.4946 82.7124,68.8279 87.5,67.5C 88.3007,65.9582 88.634,64.2915 88.5,62.5C 89.1894,61.2264 90.0228,61.2264 91,62.5C 91.4643,61.9056 91.631,61.2389 91.5,60.5C 96.4016,67.2911 101.068,74.2911 105.5,81.5C 105.427,83.0269 106.094,84.0269 107.5,84.5C 111.804,90.4786 116.138,96.4786 120.5,102.5C 121.399,105.395 122.733,108.062 124.5,110.5C 114.855,109.771 105.188,109.104 95.5,108.5C 85.3292,108.923 75.1626,109.256 65,109.5C 59.9922,109.036 55.1589,108.37 50.5,107.5C 54.1817,107.665 57.8484,107.499 61.5,107C 62.056,106.617 62.3893,106.117 62.5,105.5C 63.1667,105.5 63.8333,105.5 64.5,105.5C 65.4614,103.735 65.7947,101.735 65.5,99.5C 66.8333,99.5 68.1667,99.5 69.5,99.5C 69.7076,101.92 69.3742,104.253 68.5,106.5C 72.1073,107.489 75.774,107.823 79.5,107.5C 81.0481,107.179 81.7148,106.179 81.5,104.5C 80.5,104.5 79.5,104.5 78.5,104.5C 78.1924,102.076 78.5258,99.7427 79.5,97.5C 80.4168,96.8728 81.4168,96.5394 82.5,96.5C 82.4021,98.5529 83.0687,100.22 84.5,101.5C 84.8333,103.833 86.1667,105.167 88.5,105.5C 88.9175,106.222 89.5842,106.722 90.5,107C 93.4816,107.498 96.4816,107.665 99.5,107.5C 102.888,106.652 105.221,104.652 106.5,101.5C 109.34,93.9609 107.34,88.2942 100.5,84.5C 97.0242,83.3567 93.3575,83.1901 89.5,84C 87.9371,84.7589 86.9371,85.9256 86.5,87.5C 85.1667,88.1667 84.1667,89.1667 83.5,90.5C 80.4124,90.8034 78.7458,89.4701 78.5,86.5C 78.8039,85.8501 79.1373,85.1835 79.5,84.5C 75.8333,83.1667 72.1667,83.1667 68.5,84.5C 69.1882,85.8549 70.1882,86.8549 71.5,87.5C 72.9516,88.3019 74.6183,88.8019 76.5,89C 73.4686,89.4954 70.4686,89.3287 67.5,88.5C 67.7148,90.1788 67.0481,91.1788 65.5,91.5C 65.5,88.8333 65.5,86.1667 65.5,83.5C 59.8236,83.3339 54.1569,83.5006 48.5,84C 46.9371,84.7589 45.9371,85.9256 45.5,87.5C 44.5,87.8333 43.8333,88.5 43.5,89.5C 42.8826,89.6107 42.3826,89.944 42,90.5C 41.1955,93.6965 41.3622,96.6965 42.5,99.5C 44.1394,101.806 46.1394,103.806 48.5,105.5C 48.5,105.833 48.5,106.167 48.5,106.5C 46.1582,106.775 46.1582,107.608 48.5,109C 44.8333,109.167 41.1667,109.333 37.5,109.5C 33.4348,109.489 29.7681,108.822 26.5,107.5C 26.8333,106.167 27.1667,104.833 27.5,103.5C 34.5848,90.9935 41.9181,78.6602 49.5,66.5C 49.8194,70.2998 50.8194,70.4665 52.5,67C 53.448,66.5172 54.448,66.3505 55.5,66.5C 55.0535,63.9899 55.7202,61.9899 57.5,60.5 Z"/></g>
<g><path style="opacity:1" fill="#d97873" d="M 114.5,71.5 C 115.906,71.9731 116.573,72.9731 116.5,74.5C 115.094,74.0269 114.427,73.0269 114.5,71.5 Z"/></g>
<g><path style="opacity:1" fill="#ea9995" d="M 102.5,71.5 C 103.167,71.8333 103.833,72.1667 104.5,72.5C 104.5,73.1667 104.5,73.8333 104.5,74.5C 103.094,74.0269 102.427,73.0269 102.5,71.5 Z"/></g>
<g><path style="opacity:1" fill="#da7874" d="M 27.5,76.5 C 27.573,78.0269 26.9063,79.0269 25.5,79.5C 25.427,77.9731 26.0937,76.9731 27.5,76.5 Z"/></g>
<g><path style="opacity:1" fill="#e18d8b" d="M 25.5,79.5 C 25.1551,82.1979 23.8218,84.1979 21.5,85.5C 22.3403,83.1475 23.6736,81.1475 25.5,79.5 Z"/></g>
<g><path style="opacity:1" fill="#737d9e" d="M 105.5,81.5 C 106.906,81.9731 107.573,82.9731 107.5,84.5C 106.094,84.0269 105.427,83.0269 105.5,81.5 Z"/></g>
<g><path style="opacity:1" fill="#8d94b1" d="M 65.5,91.5 C 64.8333,91.5 64.1667,91.5 63.5,91.5C 62.6618,91.1583 62.3284,90.4916 62.5,89.5C 63.1174,89.6107 63.6174,89.944 64,90.5C 64.4955,88.5273 64.6621,86.5273 64.5,84.5C 62.1432,84.3367 59.8098,84.5034 57.5,85C 58.056,85.3826 58.3893,85.8826 58.5,86.5C 56.1667,86.5 53.8333,86.5 51.5,86.5C 52.8502,85.3501 52.6836,84.6834 51,84.5C 49.2355,85.6321 47.4021,86.6321 45.5,87.5C 45.9371,85.9256 46.9371,84.7589 48.5,84C 54.1569,83.5006 59.8236,83.3339 65.5,83.5C 65.5,86.1667 65.5,88.8333 65.5,91.5 Z"/></g>
<g><path style="opacity:1" fill="#878eaf" d="M 78.5,86.5 C 78.1667,86.5 77.8333,86.5 77.5,86.5C 76.8478,85.2749 75.6811,84.6083 74,84.5C 72.8333,84.6667 71.6667,84.8333 70.5,85C 71.3805,85.7083 72.0472,86.5416 72.5,87.5C 72.1667,87.5 71.8333,87.5 71.5,87.5C 70.1882,86.8549 69.1882,85.8549 68.5,84.5C 72.1667,83.1667 75.8333,83.1667 79.5,84.5C 79.1373,85.1835 78.8039,85.8501 78.5,86.5 Z"/></g>
<g><path style="opacity:1" fill="#9399b8" d="M 100.5,84.5 C 98.0065,84.1307 97.3398,84.7973 98.5,86.5C 96.5,86.5 94.5,86.5 92.5,86.5C 93.8502,85.3501 93.6836,84.6834 92,84.5C 90.2355,85.6321 88.4021,86.6321 86.5,87.5C 86.9371,85.9256 87.9371,84.7589 89.5,84C 93.3575,83.1901 97.0242,83.3567 100.5,84.5 Z"/></g>
<g><path style="opacity:1" fill="#e7e8eb" d="M 77.5,86.5 C 76.0813,87.4511 74.4147,87.7845 72.5,87.5C 72.0472,86.5416 71.3805,85.7083 70.5,85C 71.6667,84.8333 72.8333,84.6667 74,84.5C 75.6811,84.6083 76.8478,85.2749 77.5,86.5 Z"/></g>
<g><path style="opacity:1" fill="#f1f1f2" d="M 92.5,86.5 C 91.5416,86.9528 90.7083,87.6195 90,88.5C 89.1849,93.3522 89.3516,98.0189 90.5,102.5C 90.5,103.833 89.8333,104.5 88.5,104.5C 87.1667,103.5 85.8333,102.5 84.5,101.5C 84.4889,99.4534 84.1556,97.4534 83.5,95.5C 84.1221,92.6264 85.1221,89.9597 86.5,87.5C 88.4021,86.6321 90.2355,85.6321 92,84.5C 93.6836,84.6834 93.8502,85.3501 92.5,86.5 Z"/></g>
<g><path style="opacity:1" fill="#dee0e5" d="M 100.5,84.5 C 107.34,88.2942 109.34,93.9609 106.5,101.5C 105.078,102.925 103.411,103.925 101.5,104.5C 100.662,104.158 100.328,103.492 100.5,102.5C 100.666,97.4889 100.499,92.4889 100,87.5C 99.6174,86.944 99.1174,86.6107 98.5,86.5C 97.3398,84.7973 98.0065,84.1307 100.5,84.5 Z"/></g>
<g><path style="opacity:1" fill="#d6d8d9" d="M 62.5,89.5 C 61.7377,87.7376 60.4044,86.7376 58.5,86.5C 58.3893,85.8826 58.056,85.3826 57.5,85C 59.8098,84.5034 62.1432,84.3367 64.5,84.5C 64.6621,86.5273 64.4955,88.5273 64,90.5C 63.6174,89.944 63.1174,89.6107 62.5,89.5 Z"/></g>
<g><path style="opacity:1" fill="#334382" d="M 51.5,86.5 C 53.8333,86.5 56.1667,86.5 58.5,86.5C 60.4044,86.7376 61.7377,87.7376 62.5,89.5C 62.3284,90.4916 62.6618,91.1583 63.5,91.5C 64.635,92.4745 65.635,93.6412 66.5,95C 62.7887,95.8253 59.122,95.6586 55.5,94.5C 57.0453,93.5481 58.712,93.2148 60.5,93.5C 60.6495,92.448 60.4828,91.448 60,90.5C 57.6667,91.8333 55.3333,91.8333 53,90.5C 51.5951,94.0721 51.2617,97.7387 52,101.5C 53.0113,102.337 54.1779,102.67 55.5,102.5C 55.281,101.325 55.6143,100.325 56.5,99.5C 57.4519,101.045 57.7852,102.712 57.5,104.5C 54.5491,104.713 51.8825,104.046 49.5,102.5C 48.5655,101.432 48.2322,100.099 48.5,98.5C 48.2912,94.1394 49.2912,90.1394 51.5,86.5 Z"/></g>
<g><path style="opacity:1" fill="#3e538b" d="M 77.5,86.5 C 77.8333,86.5 78.1667,86.5 78.5,86.5C 78.7458,89.4701 80.4124,90.8034 83.5,90.5C 82.6586,92.3792 82.3253,94.3792 82.5,96.5C 81.4168,96.5394 80.4168,96.8728 79.5,97.5C 78.5258,99.7427 78.1924,102.076 78.5,104.5C 79.5,104.5 80.5,104.5 81.5,104.5C 81.7148,106.179 81.0481,107.179 79.5,107.5C 79.5,106.167 78.8333,105.5 77.5,105.5C 77.5,105.167 77.5,104.833 77.5,104.5C 77.5,99.8333 77.5,95.1667 77.5,90.5C 75.5,90.5 73.5,90.5 71.5,90.5C 69.6122,92.9878 68.9455,95.9878 69.5,99.5C 68.1667,99.5 66.8333,99.5 65.5,99.5C 65.8039,98.8501 66.1373,98.1835 66.5,97.5C 63.1667,96.1667 59.8333,96.1667 56.5,97.5C 56.9569,98.2975 57.6236,98.6309 58.5,98.5C 58.5,100.5 58.5,102.5 58.5,104.5C 58.1667,104.5 57.8333,104.5 57.5,104.5C 57.7852,102.712 57.4519,101.045 56.5,99.5C 55.6143,100.325 55.281,101.325 55.5,102.5C 54.1779,102.67 53.0113,102.337 52,101.5C 51.2617,97.7387 51.5951,94.0721 53,90.5C 55.3333,91.8333 57.6667,91.8333 60,90.5C 60.4828,91.448 60.6495,92.448 60.5,93.5C 58.712,93.2148 57.0453,93.5481 55.5,94.5C 59.122,95.6586 62.7887,95.8253 66.5,95C 65.635,93.6412 64.635,92.4745 63.5,91.5C 64.1667,91.5 64.8333,91.5 65.5,91.5C 67.0481,91.1788 67.7148,90.1788 67.5,88.5C 70.4686,89.3287 73.4686,89.4954 76.5,89C 74.6183,88.8019 72.9516,88.3019 71.5,87.5C 71.8333,87.5 72.1667,87.5 72.5,87.5C 74.4147,87.7845 76.0813,87.4511 77.5,86.5 Z"/></g>
<g><path style="opacity:1" fill="#dd7770" d="M 20.5,88.5 C 20.2624,90.4044 19.2624,91.7377 17.5,92.5C 17.7376,90.5956 18.7376,89.2623 20.5,88.5 Z"/></g>
<g><path style="opacity:1" fill="#e04841" d="M 110.5,65.5 C 112.192,67.2048 113.525,69.2048 114.5,71.5C 114.427,73.0269 115.094,74.0269 116.5,74.5C 120.996,80.1559 124.996,86.1559 128.5,92.5C 128.427,94.0269 129.094,95.0269 130.5,95.5C 135.908,101.976 140.575,108.976 144.5,116.5C 144.5,118.5 144.5,120.5 144.5,122.5C 143.391,122.557 142.391,122.89 141.5,123.5C 129.5,123.5 117.5,123.5 105.5,123.5C 105.5,120.833 105.5,118.167 105.5,115.5C 112.687,115.825 119.687,115.491 126.5,114.5C 127.167,114.5 127.833,114.5 128.5,114.5C 129.139,113.903 129.472,113.07 129.5,112C 129.316,110.624 128.649,109.791 127.5,109.5C 127.573,107.973 126.906,106.973 125.5,106.5C 124.488,105.128 123.488,103.795 122.5,102.5C 117.009,92.8552 111.009,83.5219 104.5,74.5C 104.5,73.8333 104.5,73.1667 104.5,72.5C 105.239,72.631 105.906,72.4643 106.5,72C 104.155,70.2759 103.655,68.4426 105,66.5C 106.261,66.7591 107.261,67.4258 108,68.5C 109.417,67.9221 110.25,66.9221 110.5,65.5 Z"/></g>
<g><path style="opacity:1" fill="#71789a" d="M 51.5,86.5 C 49.2912,90.1394 48.2912,94.1394 48.5,98.5C 47.3709,96.3718 47.2042,94.0385 48,91.5C 48.2233,89.1192 49.39,87.4525 51.5,86.5 Z"/></g>
<g><path style="opacity:1" fill="#efc2be" d="M 31.5,89.5 C 31.9754,92.3126 30.9754,94.3126 28.5,95.5C 29.5082,93.4561 30.5082,91.4561 31.5,89.5 Z"/></g>
<g><path style="opacity:1" fill="#f9f8f7" d="M 72.5,91.5 C 73.8333,91.5 75.1667,91.5 76.5,91.5C 76.5,95.8333 76.5,100.167 76.5,104.5C 75.4324,105.434 74.099,105.768 72.5,105.5C 72.5,100.833 72.5,96.1667 72.5,91.5 Z"/></g>
<g><path style="opacity:1" fill="#dc736e" d="M 128.5,92.5 C 129.906,92.9731 130.573,93.9731 130.5,95.5C 129.094,95.0269 128.427,94.0269 128.5,92.5 Z"/></g>
<g><path style="opacity:1" fill="#98a1bb" d="M 43.5,89.5 C 42.6758,92.7644 42.3424,96.0977 42.5,99.5C 41.3622,96.6965 41.1955,93.6965 42,90.5C 42.3826,89.944 42.8826,89.6107 43.5,89.5 Z"/></g>
<g><path style="opacity:1" fill="#a1abc0" d="M 86.5,87.5 C 85.1221,89.9597 84.1221,92.6264 83.5,95.5C 84.1556,97.4534 84.4889,99.4534 84.5,101.5C 83.0687,100.22 82.4021,98.5529 82.5,96.5C 82.3253,94.3792 82.6586,92.3792 83.5,90.5C 84.1667,89.1667 85.1667,88.1667 86.5,87.5 Z"/></g>
<g><path style="opacity:1" fill="#9fa6bb" d="M 71.5,91.5 C 71.5,91.1667 71.5,90.8333 71.5,90.5C 73.5,90.5 75.5,90.5 77.5,90.5C 77.5,95.1667 77.5,99.8333 77.5,104.5C 77.1667,104.5 76.8333,104.5 76.5,104.5C 76.5,100.167 76.5,95.8333 76.5,91.5C 75.1667,91.5 73.8333,91.5 72.5,91.5C 72.1667,91.5 71.8333,91.5 71.5,91.5 Z"/></g>
<g><path style="opacity:1" fill="#646c93" d="M 92.5,86.5 C 90.6683,91.5781 90.0016,96.9114 90.5,102.5C 89.3516,98.0189 89.1849,93.3522 90,88.5C 90.7083,87.6195 91.5416,86.9528 92.5,86.5 Z"/></g>
<g><path style="opacity:1" fill="#979db8" d="M 65.5,99.5 C 65.7947,101.735 65.4614,103.735 64.5,105.5C 64.5,102.833 64.5,100.167 64.5,97.5C 62.2646,97.2053 60.2646,97.5386 58.5,98.5C 57.6236,98.6309 56.9569,98.2975 56.5,97.5C 59.8333,96.1667 63.1667,96.1667 66.5,97.5C 66.1373,98.1835 65.8039,98.8501 65.5,99.5 Z"/></g>
<g><path style="opacity:1" fill="#63749e" d="M 71.5,90.5 C 71.5,90.8333 71.5,91.1667 71.5,91.5C 71.7768,96.2332 71.4435,100.9 70.5,105.5C 72.9732,106.797 75.3066,106.797 77.5,105.5C 78.8333,105.5 79.5,106.167 79.5,107.5C 75.774,107.823 72.1073,107.489 68.5,106.5C 69.3742,104.253 69.7076,101.92 69.5,99.5C 68.9455,95.9878 69.6122,92.9878 71.5,90.5 Z"/></g>
<g><path style="opacity:1" fill="#374585" d="M 92.5,86.5 C 94.5,86.5 96.5,86.5 98.5,86.5C 99.1174,86.6107 99.6174,86.944 100,87.5C 100.499,92.4889 100.666,97.4889 100.5,102.5C 97.0463,106.469 93.713,106.469 90.5,102.5C 90.0016,96.9114 90.6683,91.5781 92.5,86.5 Z"/></g>
<g><path style="opacity:1" fill="#dc7168" d="M 13.5,99.5 C 13.573,101.027 12.9063,102.027 11.5,102.5C 11.427,100.973 12.0937,99.9731 13.5,99.5 Z"/></g>
<g><path style="opacity:1" fill="#7680a3" d="M 84.5,101.5 C 85.8333,102.5 87.1667,103.5 88.5,104.5C 88.5,104.833 88.5,105.167 88.5,105.5C 86.1667,105.167 84.8333,103.833 84.5,101.5 Z"/></g>
<g><path style="opacity:1" fill="#d97e78" d="M 11.5,102.5 C 11.573,104.027 10.9063,105.027 9.5,105.5C 9.42702,103.973 10.0937,102.973 11.5,102.5 Z"/></g>
<g><path style="opacity:1" fill="#e5e6e8" d="M 51.5,86.5 C 49.39,87.4525 48.2233,89.1192 48,91.5C 47.2042,94.0385 47.3709,96.3718 48.5,98.5C 48.2322,100.099 48.5655,101.432 49.5,102.5C 49.9528,103.458 50.6195,104.292 51.5,105C 54.0385,105.796 56.3718,105.629 58.5,104.5C 58.5,102.5 58.5,100.5 58.5,98.5C 60.2646,97.5386 62.2646,97.2053 64.5,97.5C 64.5,100.167 64.5,102.833 64.5,105.5C 63.8333,105.5 63.1667,105.5 62.5,105.5C 57.8333,106.833 53.1667,106.833 48.5,105.5C 46.1394,103.806 44.1394,101.806 42.5,99.5C 42.3424,96.0977 42.6758,92.7644 43.5,89.5C 43.8333,88.5 44.5,87.8333 45.5,87.5C 47.4021,86.6321 49.2355,85.6321 51,84.5C 52.6836,84.6834 52.8502,85.3501 51.5,86.5 Z"/></g>
<g><path style="opacity:1" fill="#71789e" d="M 49.5,102.5 C 51.8825,104.046 54.5491,104.713 57.5,104.5C 57.8333,104.5 58.1667,104.5 58.5,104.5C 56.3718,105.629 54.0385,105.796 51.5,105C 50.6195,104.292 49.9528,103.458 49.5,102.5 Z"/></g>
<g><path style="opacity:1" fill="#717496" d="M 27.5,103.5 C 27.1667,104.833 26.8333,106.167 26.5,107.5C 25.5,108.167 24.5,108.833 23.5,109.5C 23.5,108.833 23.5,108.167 23.5,107.5C 24.8333,106.167 26.1667,104.833 27.5,103.5 Z"/></g>
<g><path style="opacity:1" fill="#c9cdd5" d="M 71.5,91.5 C 71.8333,91.5 72.1667,91.5 72.5,91.5C 72.5,96.1667 72.5,100.833 72.5,105.5C 74.099,105.768 75.4324,105.434 76.5,104.5C 76.8333,104.5 77.1667,104.5 77.5,104.5C 77.5,104.833 77.5,105.167 77.5,105.5C 75.3066,106.797 72.9732,106.797 70.5,105.5C 71.4435,100.9 71.7768,96.2332 71.5,91.5 Z"/></g>
<g><path style="opacity:1" fill="#c6c8d2" d="M 90.5,102.5 C 93.713,106.469 97.0463,106.469 100.5,102.5C 100.328,103.492 100.662,104.158 101.5,104.5C 100.833,105.5 100.167,106.5 99.5,107.5C 96.4816,107.665 93.4816,107.498 90.5,107C 89.5842,106.722 88.9175,106.222 88.5,105.5C 88.5,105.167 88.5,104.833 88.5,104.5C 89.8333,104.5 90.5,103.833 90.5,102.5 Z"/></g>
<g><path style="opacity:1" fill="#626a95" d="M 106.5,101.5 C 105.221,104.652 102.888,106.652 99.5,107.5C 100.167,106.5 100.833,105.5 101.5,104.5C 103.411,103.925 105.078,102.925 106.5,101.5 Z"/></g>
<g><path style="opacity:1" fill="#939ab3" d="M 48.5,106.5 C 48.5,106.167 48.5,105.833 48.5,105.5C 53.1667,106.833 57.8333,106.833 62.5,105.5C 62.3893,106.117 62.056,106.617 61.5,107C 57.8484,107.499 54.1817,107.665 50.5,107.5C 49.8333,107.167 49.1667,106.833 48.5,106.5 Z"/></g>
<g><path style="opacity:1" fill="#d68781" d="M 9.5,105.5 C 9.57298,107.027 8.90632,108.027 7.5,108.5C 7.42702,106.973 8.09368,105.973 9.5,105.5 Z"/></g>
<g><path style="opacity:1" fill="#ec9d97" d="M 125.5,106.5 C 126.906,106.973 127.573,107.973 127.5,109.5C 126.094,109.027 125.427,108.027 125.5,106.5 Z"/></g>
<g><path style="opacity:1" fill="#263676" d="M 48.5,106.5 C 49.1667,106.833 49.8333,107.167 50.5,107.5C 55.1589,108.37 59.9922,109.036 65,109.5C 75.1626,109.256 85.3292,108.923 95.5,108.5C 105.188,109.104 114.855,109.771 124.5,110.5C 103.006,111.497 81.3398,111.831 59.5,111.5C 47.1201,112.146 35.1201,111.479 23.5,109.5C 24.5,108.833 25.5,108.167 26.5,107.5C 29.7681,108.822 33.4348,109.489 37.5,109.5C 41.1667,109.333 44.8333,109.167 48.5,109C 46.1582,107.608 46.1582,106.775 48.5,106.5 Z"/></g>
<g><path style="opacity:1" fill="#d6908d" d="M 7.5,108.5 C 7.57298,110.027 6.90632,111.027 5.5,111.5C 5.42702,109.973 6.09368,108.973 7.5,108.5 Z"/></g>
<g><path style="opacity:1" fill="#ecaeac" d="M 20.5,108.5 C 20.573,110.027 19.9063,111.027 18.5,111.5C 18.427,109.973 19.0937,108.973 20.5,108.5 Z"/></g>
<g><path style="opacity:1" fill="#e5e2e6" d="M 122.5,102.5 C 123.488,103.795 124.488,105.128 125.5,106.5C 125.427,108.027 126.094,109.027 127.5,109.5C 128.301,111.042 128.634,112.708 128.5,114.5C 127.833,114.5 127.167,114.5 126.5,114.5C 119.167,114.5 111.833,114.5 104.5,114.5C 84.3402,113.503 64.0069,113.17 43.5,113.5C 34.7663,114.135 26.4329,113.468 18.5,111.5C 19.9063,111.027 20.573,110.027 20.5,108.5C 21.391,107.89 22.391,107.557 23.5,107.5C 23.5,108.167 23.5,108.833 23.5,109.5C 22.596,110.209 22.2627,111.209 22.5,112.5C 34.8333,112.5 47.1667,112.5 59.5,112.5C 81.5101,112.833 103.51,112.5 125.5,111.5C 125.376,110.893 125.043,110.56 124.5,110.5C 122.733,108.062 121.399,105.395 120.5,102.5C 120.938,101.494 121.604,101.494 122.5,102.5 Z"/></g>
<g><path style="opacity:1" fill="#647199" d="M 124.5,110.5 C 125.043,110.56 125.376,110.893 125.5,111.5C 103.51,112.5 81.5101,112.833 59.5,112.5C 59.5,112.167 59.5,111.833 59.5,111.5C 81.3398,111.831 103.006,111.497 124.5,110.5 Z"/></g>
<g><path style="opacity:1" fill="#8190b2" d="M 23.5,109.5 C 35.1201,111.479 47.1201,112.146 59.5,111.5C 59.5,111.833 59.5,112.167 59.5,112.5C 47.1667,112.5 34.8333,112.5 22.5,112.5C 22.2627,111.209 22.596,110.209 23.5,109.5 Z"/></g>
<g><path style="opacity:1" fill="#e4847f" d="M 127.5,109.5 C 128.649,109.791 129.316,110.624 129.5,112C 129.472,113.07 129.139,113.903 128.5,114.5C 128.634,112.708 128.301,111.042 127.5,109.5 Z"/></g>
<g><path style="opacity:1" fill="#fbb8b2" d="M 18.5,111.5 C 26.4329,113.468 34.7663,114.135 43.5,113.5C 43.5,113.833 43.5,114.167 43.5,114.5C 43.1667,114.5 42.8333,114.5 42.5,114.5C 34.1667,114.5 25.8333,114.5 17.5,114.5C 17.2627,113.209 17.596,112.209 18.5,111.5 Z"/></g>
<g><path style="opacity:1" fill="#e0453d" d="M 88.5,31.5 C 88.427,33.0269 89.0937,34.0269 90.5,34.5C 97.5445,44.5535 104.211,54.8869 110.5,65.5C 110.25,66.9221 109.417,67.9221 108,68.5C 107.261,67.4258 106.261,66.7591 105,66.5C 103.655,68.4426 104.155,70.2759 106.5,72C 105.906,72.4643 105.239,72.631 104.5,72.5C 103.833,72.1667 103.167,71.8333 102.5,71.5C 101.331,68.4887 99.664,65.822 97.5,63.5C 97.573,61.9731 96.9063,60.9731 95.5,60.5C 95.573,58.9731 94.9063,57.9731 93.5,57.5C 93.573,55.9731 92.9063,54.9731 91.5,54.5C 91.573,52.9731 90.9063,51.9731 89.5,51.5C 85.0683,44.2911 80.4016,37.2911 75.5,30.5C 73.1667,25.1667 70.8333,25.1667 68.5,30.5C 67.0937,30.9731 66.427,31.9731 66.5,33.5C 63.2371,38.362 60.2371,43.362 57.5,48.5C 55.6736,50.1475 54.3403,52.1475 53.5,54.5C 52.1103,55.8993 51.1103,57.5659 50.5,59.5C 49.0937,59.9731 48.427,60.9731 48.5,62.5C 46.8009,64.5664 45.4676,66.8997 44.5,69.5C 40.136,76.1873 35.8027,82.854 31.5,89.5C 30.5082,91.4561 29.5082,93.4561 28.5,95.5C 25.0843,99.3233 22.4176,103.657 20.5,108.5C 19.0937,108.973 18.427,109.973 18.5,111.5C 17.596,112.209 17.2627,113.209 17.5,114.5C 25.8333,114.5 34.1667,114.5 42.5,114.5C 42.5,117.5 42.5,120.5 42.5,123.5C 33.1667,123.5 23.8333,123.5 14.5,123.5C 11.3926,123.649 8.3926,123.149 5.5,122C 3.84464,120.556 3.17798,118.722 3.5,116.5C 4.16667,114.833 4.83333,113.167 5.5,111.5C 6.90632,111.027 7.57298,110.027 7.5,108.5C 8.90632,108.027 9.57298,107.027 9.5,105.5C 10.9063,105.027 11.573,104.027 11.5,102.5C 12.9063,102.027 13.573,101.027 13.5,99.5C 14.0787,96.6689 15.412,94.3356 17.5,92.5C 19.2624,91.7377 20.2624,90.4044 20.5,88.5C 20.5569,87.391 20.8902,86.391 21.5,85.5C 23.8218,84.1979 25.1551,82.1979 25.5,79.5C 26.9063,79.0269 27.573,78.0269 27.5,76.5C 27.3284,75.5084 27.6618,74.8417 28.5,74.5C 29.4584,74.0472 30.2917,73.3805 31,72.5C 32.3961,69.9361 33.5627,67.2695 34.5,64.5C 35.9063,64.0269 36.573,63.0269 36.5,61.5C 37.9063,61.0269 38.573,60.0269 38.5,58.5C 40.2503,57.3406 41.2503,55.674 41.5,53.5C 42.9063,53.0269 43.573,52.0269 43.5,50.5C 43.3284,49.5084 43.6618,48.8417 44.5,48.5C 46.942,46.8791 48.2753,44.5458 48.5,41.5C 49.9063,41.0269 50.573,40.0269 50.5,38.5C 51.3604,36.7121 52.3604,35.0455 53.5,33.5C 55.9,31.7036 57.5667,29.3702 58.5,26.5C 59.1098,25.609 59.4431,24.609 59.5,23.5C 60.9063,23.0269 61.573,22.0269 61.5,20.5C 65.3846,10.2578 71.2179,8.92445 79,16.5C 82.0221,21.6686 85.1888,26.6686 88.5,31.5 Z"/></g>
<g><path style="opacity:1" fill="#203376" d="M 56.5,67.5 C 66.8333,67.5 77.1667,67.5 87.5,67.5C 82.7124,68.8279 77.5457,69.4946 72,69.5C 66.4543,69.4946 61.2876,68.8279 56.5,67.5 Z"/></g>
<g><path style="opacity:1" fill="#596392" d="M 86.5,60.5 C 87.1667,61.1667 87.8333,61.8333 88.5,62.5C 88.634,64.2915 88.3007,65.9582 87.5,67.5C 77.1667,67.5 66.8333,67.5 56.5,67.5C 56.5,67.1667 56.5,66.8333 56.5,66.5C 66.6806,66.8274 76.6806,66.494 86.5,65.5C 86.5,64.8333 86.5,64.1667 86.5,63.5C 86.5,62.5 86.5,61.5 86.5,60.5 Z"/></g>
<g><path style="opacity:1" fill="#f0bab6" d="M 48.5,62.5 C 48.2753,65.5458 46.942,67.8791 44.5,69.5C 45.4676,66.8997 46.8009,64.5664 48.5,62.5 Z"/></g>
<g><path style="opacity:1" fill="#ced2dc" d="M 62.5,54.5 C 63.8333,54.5 64.5,55.1667 64.5,56.5C 63.1667,58.1667 61.8333,59.8333 60.5,61.5C 59.6618,61.8417 59.3284,62.5084 59.5,63.5C 58.6236,63.3691 57.9569,63.7025 57.5,64.5C 67.1437,65.4984 76.8104,65.8318 86.5,65.5C 76.6806,66.494 66.6806,66.8274 56.5,66.5C 56.5172,64.4352 56.8505,62.4352 57.5,60.5C 58.7031,58.0815 60.3697,56.0815 62.5,54.5 Z"/></g>
<g><path style="opacity:1" fill="#6e7896" d="M 52.5,62.5 C 52.573,64.0269 51.9063,65.0269 50.5,65.5C 50.427,63.9731 51.0937,62.9731 52.5,62.5 Z"/></g>
<g><path style="opacity:1" fill="#e59d9b" d="M 95.5,60.5 C 96.9063,60.9731 97.573,61.9731 97.5,63.5C 96.0937,63.0269 95.427,62.0269 95.5,60.5 Z"/></g>
<g><path style="opacity:1" fill="#545452" d="M 60.5,61.5 C 61.5,62.1667 62.5,62.8333 63.5,63.5C 62.1667,63.5 60.8333,63.5 59.5,63.5C 59.3284,62.5084 59.6618,61.8417 60.5,61.5 Z"/></g>
<g><path style="opacity:1" fill="#e69d99" d="M 50.5,59.5 C 50.573,61.0269 49.9063,62.0269 48.5,62.5C 48.427,60.9731 49.0937,59.9731 50.5,59.5 Z"/></g>
<g><path style="opacity:1" fill="#717170" d="M 73.5,58.5 C 72.4647,60.205 72.4647,61.8716 73.5,63.5C 71.9547,64.4519 70.288,64.7852 68.5,64.5C 70.3217,62.596 71.9883,60.596 73.5,58.5 Z"/></g>
<g><path style="opacity:1" fill="#e89d9b" d="M 93.5,57.5 C 94.9063,57.9731 95.573,58.9731 95.5,60.5C 94.0937,60.0269 93.427,59.0269 93.5,57.5 Z"/></g>
<g><path style="opacity:1" fill="#687498" d="M 89.5,57.5 C 90.9063,57.9731 91.573,58.9731 91.5,60.5C 90.0937,60.0269 89.427,59.0269 89.5,57.5 Z"/></g>
<g><path style="opacity:1" fill="#eeedec" d="M 76.5,57.5 C 78.2785,58.6697 79.2785,60.3364 79.5,62.5C 80.5,62.5 81.5,62.5 82.5,62.5C 83.29,61.3915 83.79,60.0581 84,58.5C 84.9853,60.1749 85.8186,61.8415 86.5,63.5C 86.5,64.1667 86.5,64.8333 86.5,65.5C 76.8104,65.8318 67.1437,65.4984 57.5,64.5C 57.9569,63.7025 58.6236,63.3691 59.5,63.5C 60.8333,63.5 62.1667,63.5 63.5,63.5C 64.9187,64.4511 66.5853,64.7845 68.5,64.5C 70.288,64.7852 71.9547,64.4519 73.5,63.5C 72.4647,61.8716 72.4647,60.205 73.5,58.5C 74.391,57.8902 75.391,57.5569 76.5,57.5 Z"/></g>
<g><path style="opacity:1" fill="#e9aaa6" d="M 91.5,54.5 C 92.9063,54.9731 93.573,55.9731 93.5,57.5C 92.0937,57.0269 91.427,56.0269 91.5,54.5 Z"/></g>
<g><path style="opacity:1" fill="#151514" d="M 82.5,62.5 C 81.5,62.5 80.5,62.5 79.5,62.5C 79.2785,60.3364 78.2785,58.6697 76.5,57.5C 75.0527,56.1148 74.0527,56.4482 73.5,58.5C 71.9883,60.596 70.3217,62.596 68.5,64.5C 66.5853,64.7845 64.9187,64.4511 63.5,63.5C 62.5,62.8333 61.5,62.1667 60.5,61.5C 61.8333,59.8333 63.1667,58.1667 64.5,56.5C 66.2726,54.2192 68.4393,53.8859 71,55.5C 72.6049,53.9361 74.4382,53.4361 76.5,54C 78.2415,55.6196 80.0748,57.1196 82,58.5C 82.49,59.7932 82.6567,61.1266 82.5,62.5 Z"/></g>
<g><path style="opacity:1" fill="#676767" d="M 76.5,57.5 C 75.391,57.5569 74.391,57.8902 73.5,58.5C 74.0527,56.4482 75.0527,56.1148 76.5,57.5 Z"/></g>
<g><path style="opacity:1" fill="#e2a1a1" d="M 89.5,51.5 C 90.9063,51.9731 91.573,52.9731 91.5,54.5C 90.0937,54.0269 89.427,53.0269 89.5,51.5 Z"/></g>
<g><path style="opacity:1" fill="#253576" d="M 84.5,50.5 C 85.0798,52.7488 86.4131,54.4154 88.5,55.5C 88.8333,56.1667 89.1667,56.8333 89.5,57.5C 89.427,59.0269 90.0937,60.0269 91.5,60.5C 91.631,61.2389 91.4643,61.9056 91,62.5C 90.0228,61.2264 89.1894,61.2264 88.5,62.5C 87.8333,61.8333 87.1667,61.1667 86.5,60.5C 85.925,58.5887 84.925,56.922 83.5,55.5C 83.6427,53.7376 83.3094,52.0709 82.5,50.5C 82.9698,49.537 83.6365,49.537 84.5,50.5 Z"/></g>
<g><path style="opacity:1" fill="#a3a5af" d="M 83.5,55.5 C 84.925,56.922 85.925,58.5887 86.5,60.5C 86.5,61.5 86.5,62.5 86.5,63.5C 85.8186,61.8415 84.9853,60.1749 84,58.5C 83.79,60.0581 83.29,61.3915 82.5,62.5C 82.6567,61.1266 82.49,59.7932 82,58.5C 80.0748,57.1196 78.2415,55.6196 76.5,54C 74.4382,53.4361 72.6049,53.9361 71,55.5C 68.4393,53.8859 66.2726,54.2192 64.5,56.5C 64.5,55.1667 63.8333,54.5 62.5,54.5C 62.8417,53.6618 63.5084,53.3284 64.5,53.5C 71.1465,51.7277 77.4799,52.3944 83.5,55.5 Z"/></g>
<g><path style="opacity:1" fill="#5d6892" d="M 84.5,50.5 C 86.5869,51.5846 87.9202,53.2512 88.5,55.5C 86.4131,54.4154 85.0798,52.7488 84.5,50.5 Z"/></g>
<g><path style="opacity:1" fill="#223475" d="M 64.5,53.5 C 63.5084,53.3284 62.8417,53.6618 62.5,54.5C 60.3697,56.0815 58.7031,58.0815 57.5,60.5C 55.7202,61.9899 55.0535,63.9899 55.5,66.5C 54.448,66.3505 53.448,66.5172 52.5,67C 50.8194,70.4665 49.8194,70.2998 49.5,66.5C 50.1667,66.5 50.5,66.1667 50.5,65.5C 51.9063,65.0269 52.573,64.0269 52.5,62.5C 56.2809,58.3757 59.2809,53.7091 61.5,48.5C 63.6551,47.4476 63.9884,48.1143 62.5,50.5C 63.6119,51.2652 64.2786,52.2652 64.5,53.5 Z"/></g>
<g><path style="opacity:1" fill="#58638b" d="M 61.5,48.5 C 59.2809,53.7091 56.2809,58.3757 52.5,62.5C 54.7191,57.2909 57.7191,52.6243 61.5,48.5 Z"/></g>
<g><path style="opacity:1" fill="#e9aba8" d="M 57.5,48.5 C 57.1551,51.1979 55.8218,53.1979 53.5,54.5C 54.3403,52.1475 55.6736,50.1475 57.5,48.5 Z"/></g>
<g><path style="opacity:1" fill="#364681" d="M 84.5,50.5 C 83.6365,49.537 82.9698,49.537 82.5,50.5C 83.3094,52.0709 83.6427,53.7376 83.5,55.5C 77.4799,52.3944 71.1465,51.7277 64.5,53.5C 64.2786,52.2652 63.6119,51.2652 62.5,50.5C 63.9884,48.1143 63.6551,47.4476 61.5,48.5C 62.7375,45.2622 64.4042,42.2622 66.5,39.5C 67.9063,39.0269 68.573,38.0269 68.5,36.5C 68.6118,33.0232 70.2785,31.5232 73.5,32C 77.5673,37.9742 81.2339,44.1409 84.5,50.5 Z"/></g>
<g><path style="opacity:1" fill="#757d9e" d="M 68.5,36.5 C 68.573,38.0269 67.9063,39.0269 66.5,39.5C 66.427,37.9731 67.0937,36.9731 68.5,36.5 Z"/></g>
<g><path style="opacity:1" fill="#e39a97" d="M 68.5,30.5 C 68.573,32.0269 67.9063,33.0269 66.5,33.5C 66.427,31.9731 67.0937,30.9731 68.5,30.5 Z"/></g>
<g><path style="opacity:1" fill="#ecb0b0" d="M 75.5,30.5 C 73.1667,27.8333 70.8333,27.8333 68.5,30.5C 70.8333,25.1667 73.1667,25.1667 75.5,30.5 Z"/></g>
<g><path style="opacity:1" fill="#e47774" d="M 3.5,116.5 C 3.17798,118.722 3.84464,120.556 5.5,122C 8.3926,123.149 11.3926,123.649 14.5,123.5C 14.5,123.833 14.5,124.167 14.5,124.5C 11.0217,124.816 7.68835,124.316 4.5,123C 2.39177,120.984 2.05843,118.817 3.5,116.5 Z"/></g>
<g><path style="opacity:1" fill="#f0bbb9" d="M 144.5,116.5 C 147.167,118.5 147.167,120.5 144.5,122.5C 144.5,120.5 144.5,118.5 144.5,116.5 Z"/></g>
<g><path style="opacity:1" fill="#e25d57" d="M 42.5,114.5 C 42.8333,114.5 43.1667,114.5 43.5,114.5C 43.5,117.833 43.5,121.167 43.5,124.5C 33.8333,124.5 24.1667,124.5 14.5,124.5C 14.5,124.167 14.5,123.833 14.5,123.5C 23.8333,123.5 33.1667,123.5 42.5,123.5C 42.5,120.5 42.5,117.5 42.5,114.5 Z"/></g>
<g><path style="opacity:1" fill="#e55a53" d="M 104.5,114.5 C 111.833,114.5 119.167,114.5 126.5,114.5C 119.687,115.491 112.687,115.825 105.5,115.5C 105.5,118.167 105.5,120.833 105.5,123.5C 117.5,123.5 129.5,123.5 141.5,123.5C 141.5,123.833 141.5,124.167 141.5,124.5C 129.167,124.5 116.833,124.5 104.5,124.5C 104.5,121.167 104.5,117.833 104.5,114.5 Z"/></g>
<g><path style="opacity:1" fill="#f3b3af" d="M 144.5,122.5 C 144.027,123.906 143.027,124.573 141.5,124.5C 141.5,124.167 141.5,123.833 141.5,123.5C 142.391,122.89 143.391,122.557 144.5,122.5 Z"/></g>
</svg>
